<svg width="120" height="120" viewBox="0 0 120 120" fill="none" xmlns="http://www.w3.org/2000/svg">
<path d="M80.4671 55.1664C82.9328 55.1747 85.355 55.8176 87.5004 57.0331C84.4799 49.2148 79.4702 42.3207 72.9671 37.0331C72.595 36.7267 72.2869 36.35 72.0604 35.9245C71.8339 35.499 71.6934 35.0331 71.647 34.5533C71.6006 34.0735 71.6491 33.5893 71.7898 33.1283C71.9305 32.6673 72.1606 32.2385 72.4671 31.8664C72.7735 31.4943 73.1502 31.1863 73.5757 30.9598C74.0011 30.7333 74.4671 30.5928 74.9468 30.5464C75.4266 30.4999 75.9108 30.5485 76.3718 30.6892C76.8329 30.8299 77.2616 31.06 77.6337 31.3664C90.9671 42.1997 96.9004 57.1998 96.9004 66.4998C96.8774 69.7881 95.8975 72.9985 94.0803 75.7392C92.263 78.4798 89.6871 80.6321 86.6671 81.9331C84.7125 82.8799 82.5721 83.3809 80.4004 83.3998C78.4889 83.4927 76.5784 83.1964 74.7847 82.5289C72.9911 81.8614 71.3518 80.8366 69.9661 79.5166C68.5803 78.1966 67.4771 76.6089 66.7234 74.8498C65.9696 73.0907 65.5809 71.1969 65.5809 69.2831C65.5809 67.3693 65.9696 65.4754 66.7234 63.7163C67.4771 61.9573 68.5803 60.3696 69.9661 59.0496C71.3518 57.7296 72.9911 56.7048 74.7848 56.0373C76.5784 55.3698 78.4889 55.0735 80.4004 55.1664L80.4671 55.1664Z" fill="#ADD8E6"/>
<path d="M43.3333 55.1671C45.7994 55.1724 48.2223 55.8154 50.3666 57.0337C47.3473 49.2236 42.3508 42.3318 35.8666 37.0337C35.4608 36.7412 35.1191 36.3687 34.8626 35.9391C34.6061 35.5096 34.4402 35.0321 34.3751 34.5361C34.3101 34.04 34.3472 33.5359 34.4842 33.0548C34.6213 32.5736 34.8554 32.1256 35.1721 31.7383C35.4887 31.351 35.8813 31.0326 36.3257 30.8027C36.77 30.5728 37.2567 30.4362 37.7558 30.4014C38.2549 30.3667 38.7558 30.4344 39.2277 30.6005C39.6996 30.7665 40.1326 31.0274 40.4999 31.3671C53.8333 42.2004 59.7666 57.2004 59.7666 66.5004C59.7508 69.7515 58.7995 72.9293 57.0262 75.6542C55.2529 78.3791 52.7327 80.5359 49.7666 81.8671C47.7626 82.8416 45.5617 83.3434 43.3333 83.3337C41.4217 83.4266 39.5112 83.1304 37.7176 82.4629C35.924 81.7954 34.2847 80.7706 32.8989 79.4506C31.5132 78.1306 30.41 76.5429 29.6562 74.7838C28.9024 73.0247 28.5138 71.1308 28.5138 69.2171C28.5138 67.3033 28.9024 65.4094 29.6562 63.6503C30.41 61.8912 31.5132 60.3036 32.8989 58.9836C34.2847 57.6636 35.924 56.6387 37.7176 55.9713C39.5112 55.3038 41.4217 55.0075 43.3333 55.1004L43.3333 55.1671Z" fill="#ADD8E6"/>
</svg>
