<svg width="120" height="120" viewBox="0 0 120 120" fill="none" xmlns="http://www.w3.org/2000/svg">
<path d="M80.4671 55.1669C82.9328 55.1752 85.355 55.8181 87.5004 57.0336C84.4799 49.2153 79.4702 42.3212 72.9671 37.0336C72.595 36.7272 72.2869 36.3504 72.0604 35.925C71.8339 35.4995 71.6934 35.0336 71.647 34.5538C71.6006 34.074 71.6491 33.5898 71.7898 33.1288C71.9305 32.6678 72.1606 32.239 72.4671 31.8669C72.7735 31.4948 73.1502 31.1867 73.5757 30.9602C74.0011 30.7338 74.4671 30.5933 74.9468 30.5469C75.4266 30.5004 75.9108 30.5489 76.3718 30.6897C76.8329 30.8304 77.2616 31.0605 77.6337 31.3669C90.9671 42.2002 96.9004 57.2002 96.9004 66.5002C96.8774 69.7885 95.8975 72.999 94.0803 75.7397C92.263 78.4803 89.6871 80.6325 86.6671 81.9336C84.7125 82.8804 82.5721 83.3814 80.4004 83.4002C78.4889 83.4932 76.5784 83.1969 74.7847 82.5294C72.9911 81.8619 71.3518 80.8371 69.9661 79.5171C68.5803 78.1971 67.4771 76.6094 66.7234 74.8503C65.9696 73.0912 65.5809 71.1974 65.5809 69.2836C65.5809 67.3698 65.9696 65.4759 66.7234 63.7168C67.4771 61.9577 68.5803 60.3701 69.9661 59.0501C71.3518 57.7301 72.9911 56.7053 74.7848 56.0378C76.5784 55.3703 78.4889 55.074 80.4004 55.1669L80.4671 55.1669Z" fill="white"/>
<path d="M43.3342 55.1666C45.8004 55.1719 48.2233 55.8149 50.3676 57.0332C47.3483 49.2231 42.3517 42.3313 35.8676 37.0332C35.4617 36.7407 35.12 36.3682 34.8635 35.9387C34.607 35.5091 34.4412 35.0316 34.3761 34.5356C34.311 34.0395 34.3482 33.5354 34.4852 33.0543C34.6223 32.5731 34.8563 32.1251 35.173 31.7378C35.4897 31.3505 35.8823 31.0321 36.3266 30.8022C36.771 30.5723 37.2577 30.4357 37.7568 30.401C38.2558 30.3662 38.7568 30.4339 39.2287 30.6C39.7006 30.766 40.1336 31.0269 40.5009 31.3666C53.8342 42.1999 59.7676 57.1999 59.7676 66.4999C59.7518 69.751 58.8004 72.9288 57.0272 75.6537C55.2539 78.3786 52.7337 80.5354 49.7676 81.8666C47.7635 82.8411 45.5626 83.3429 43.3342 83.3332C41.4227 83.4262 39.5122 83.1299 37.7186 82.4624C35.925 81.7949 34.2856 80.7701 32.8999 79.4501C31.5142 78.1301 30.411 76.5424 29.6572 74.7833C28.9034 73.0242 28.5147 71.1304 28.5147 69.2166C28.5147 67.3028 28.9034 65.4089 29.6572 63.6498C30.411 61.8907 31.5142 60.3031 32.8999 58.9831C34.2856 57.6631 35.925 56.6383 37.7186 55.9708C39.5122 55.3033 41.4227 55.007 43.3342 55.0999L43.3342 55.1666Z" fill="white"/>
</svg>
